<svg xmlns="http://www.w3.org/2000/svg" height="24" width="24">
    <path d="M2.575 2.575l6.351 10.296 6.985-10.153 5.744-.022" overflow="visible" fill="none" stroke="#57789c"
          stroke-linecap="round" stroke-linejoin="round" stroke-width="1.5"/>
    <path d="M2.575 2.575l6.351 10.296 6.985-10.153" overflow="visible" fill="none" stroke="#965353"
          stroke-linecap="round" stroke-linejoin="round" stroke-width="1.5"/>
    <path d="M2.575 2.575l6.351 10.296" overflow="visible" fill="none" stroke="#4ba252"
          stroke-linecap="round" stroke-linejoin="round" stroke-width="1.5"/>
    <path d="M4.257 2.575a1.681 1.681 0 1 1-3.363 0 1.681 1.681 0 1 1 3.363 0zm6.372 9.495a1.681 1.681 0 1 1-3.363 0 1.681 1.681 0 1 1 3.363 0zm6.786-9.388a1.681 1.681 0 1 1-3.363 0 1.681 1.681 0 1 1 3.363 0zm5.921.014a1.681 1.681 0 1 1-3.363 0 1.681 1.681 0 1 1 3.363 0z"
          overflow="visible" fill="#ffffff" fill-rule="evenodd" stroke="#2b3b4d" stroke-linecap="round"
          stroke-linejoin="round"/>
    <g transform="translate(1.846 1.846) scale(.6923)">
        <rect y="19" x="19" width="13" ry="2.615" rx="2.615" height="13" fill="#5a8c5a"/>
        <path d="M21.6 25.5h7.8m-3.9 3.9v-7.8" overflow="visible" fill="#fff" fill-rule="evenodd" stroke="#fff"
              stroke-width="2.6" stroke-linecap="round" stroke-linejoin="round"/>
        <path d="M20.3 25.5h10.4v-2.6c0-2.6-.65-2.6-5.2-2.6s-5.2 0-5.2 2.6v2.6z" opacity=".3" fill="#fcffff"
              fill-rule="evenodd"/>
    </g>
      <text
     y="22"
     x="0"
     style="font-style:normal;font-weight:bold;font-size:7px;font-family:sans-serif;letter-spacing:0px;word-spacing:0px;fill:#000000;fill-opacity:1;stroke:#ffffff;stroke-width:0.3;stroke-linecap:butt;stroke-linejoin:miter;stroke-opacity:0.72580647;opacity:1;stroke-miterlimit:4;stroke-dasharray:none;"
     xml:space="preserve">GPX</text>
</svg>